{
  "accessors": [
    {
      "bufferView": 2,
      "componentType": 5126,
      "count": 1386,
      "max": [
        99.90199279785156,
        99.90198516845703,
        100.0
      ],
      "min": [
        -99.90198516845703,
        -99.90199279785156,
        -100.0
      ],
      "type": "VEC3"
    },
    {
      "bufferView": 2,
      "byteOffset": 16632,
      "componentType": 5126,
      "count": 1386,
      "max": [
        1.0,
        1.0,
        1.0
      ],
      "min": [
        -1.0,
        -1.0,
        -1.0
      ],
      "type": "VEC3"
    },
    {
      "bufferView": 3,
      "componentType": 5126,
      "count": 1386,
      "max": [
        1.0,
        1.0,
        0.9019466638565063,
        1.0
      ],
      "min": [
        -1.0,
        -1.0,
        -0.901943564414978,
        -1.0
      ],
      "type": "VEC4"
    },
    {
      "bufferView": 1,
      "componentType": 5126,
      "count": 1386,
      "max": [
        1.128936529159546,
        1.0
      ],
      "min": [
        0.0,
        -1.1920928955078125e-07
      ],
      "type": "VEC2"
    },
    {
      "bufferView": 0,
      "componentType": 5125,
      "count": 3654,
      "type": "SCALAR"
    },
    {
      "bufferView": 2,
      "byteOffset": 33264,
      "componentType": 5126,
      "count": 981,
      "max": [
        25.042329788208008,
        -62.76898956298828,
        64.859375
      ],
      "min": [
        -25.07255744934082,
        -96.03517150878906,
        16.636646270751953
      ],
      "type": "VEC3"
    },
    {
      "bufferView": 2,
      "byteOffset": 45036,
      "componentType": 5126,
      "count": 981,
      "max": [
        0.9999957084655762,
        0.5114965438842773,
        0.9922119379043579
      ],
      "min": [
        -0.9999114274978638,
        -0.9995713829994202,
        -0.9446964263916016
      ],
      "type": "VEC3"
    },
    {
      "bufferView": 3,
      "byteOffset": 22176,
      "componentType": 5126,
      "count": 981,
      "max": [
        1.0,
        0.4645654559135437,
        0.9240059852600098,
        -1.0
      ],
      "min": [
        -1.0,
        -0.46546924114227295,
        -0.9244374632835388,
        -1.0
      ],
      "type": "VEC4"
    },
    {
      "bufferView": 1,
      "byteOffset": 11088,
      "componentType": 5126,
      "count": 981,
      "max": [
        1.000000238418579,
        0.5625001192092896
      ],
      "min": [
        -4.127589363633888e-07,
        -1.1920928955078125e-07
      ],
      "type": "VEC2"
    },
    {
      "bufferView": 0,
      "byteOffset": 14616,
      "componentType": 5125,
      "count": 1662,
      "type": "SCALAR"
    },
    {
      "bufferView": 2,
      "byteOffset": 56808,
      "componentType": 5126,
      "count": 640,
      "max": [
        26.57282066345215,
        -73.9110107421875,
        66.87592315673828
      ],
      "min": [
        -26.572816848754883,
        -97.69758605957031,
        18.87554359436035
      ],
      "type": "VEC3"
    },
    {
      "bufferView": 2,
      "byteOffset": 64488,
      "componentType": 5126,
      "count": 640,
      "max": [
        0.9980807304382324,
        0.5114965438842773,
        0.9998671412467957
      ],
      "min": [
        -0.9981184005737305,
        -0.9998703598976135,
        -0.9446964263916016
      ],
      "type": "VEC3"
    },
    {
      "bufferView": 1,
      "byteOffset": 18936,
      "componentType": 5126,
      "count": 640,
      "max": [
        0.9994784593582153,
        0.9979999661445618
      ],
      "min": [
        -4.127589363633888e-07,
        0.0020000000949949026
      ],
      "type": "VEC2"
    },
    {
      "bufferView": 0,
      "byteOffset": 21264,
      "componentType": 5125,
      "count": 1764,
      "type": "SCALAR"
    },
    {
      "bufferView": 4,
      "componentType": 5126,
      "count": 501,
      "max": [
        16.66666603088379
      ],
      "min": [
        0.0
      ],
      "type": "SCALAR"
    },
    {
      "bufferView": 5,
      "componentType": 5126,
      "count": 501,
      "max": [
        0.8864309191703796,
        0.46286022663116455,
        0.8864297270774841,
        0.30619367957115173
      ],
      "min": [
        -0.6246848702430725,
        -0.34457287192344666,
        -0.6237365007400513,
        -0.4628607928752899
      ],
      "type": "VEC4"
    }
  ],
  "animations": [
    {
      "channels": [
        {
          "sampler": 0,
          "target": {
            "node": 4,
            "path": "rotation"
          }
        }
      ],
      "name": "Take 001",
      "samplers": [
        {
          "input": 14,
          "interpolation": "LINEAR",
          "output": 15
        }
      ]
    }
  ],
  "asset": {
    "extras": {
      "author": "Anthony Yanez (https://sketchfab.com/paulyanez)",
      "license": "CC-BY-4.0 (http://creativecommons.org/licenses/by/4.0/)",
      "source": "https://sketchfab.com/3d-models/death-star-star-wars-699e5f635f7a4b21a4c0d2e3f5b68324",
      "title": "Death Star (Star Wars)"
    },
    "generator": "Sketchfab-12.66.0",
    "version": "2.0"
  },
  "bufferViews": [
    {
      "buffer": 0,
      "byteLength": 28320,
      "name": "floatBufferViews",
      "target": 34963
    },
    {
      "buffer": 0,
      "byteLength": 24056,
      "byteOffset": 28320,
      "byteStride": 8,
      "name": "floatBufferViews",
      "target": 34962
    },
    {
      "buffer": 0,
      "byteLength": 72168,
      "byteOffset": 52376,
      "byteStride": 12,
      "name": "floatBufferViews",
      "target": 34962
    },
    {
      "buffer": 0,
      "byteLength": 37872,
      "byteOffset": 124544,
      "byteStride": 16,
      "name": "floatBufferViews",
      "target": 34962
    },
    {
      "buffer": 0,
      "byteLength": 2004,
      "byteOffset": 162416,
      "name": "floatBufferViews"
    },
    {
      "buffer": 0,
      "byteLength": 8016,
      "byteOffset": 164420,
      "byteStride": 16,
      "name": "floatBufferViews"
    }
  ],
  "buffers": [
    {
      "byteLength": 172436,
      "uri": "scene.bin"
    }
  ],
  "images": [
    {
      "uri": "textures/03_-_Default_baseColor.jpeg"
    },
    {
      "uri": "textures/03_-_Default_normal.png"
    },
    {
      "uri": "textures/02_-_Default_baseColor.jpeg"
    },
    {
      "uri": "textures/02_-_Default_normal.png"
    }
  ],
  "materials": [
    {
      "doubleSided": true,
      "name": "03_-_Default",
      "normalTexture": {
        "index": 1
      },
      "pbrMetallicRoughness": {
        "baseColorTexture": {
          "index": 0
        },
        "roughnessFactor": 0.7
      }
    },
    {
      "doubleSided": true,
      "name": "02_-_Default",
      "normalTexture": {
        "index": 3
      },
      "pbrMetallicRoughness": {
        "baseColorTexture": {
          "index": 2
        },
        "metallicFactor": 0.0,
        "roughnessFactor": 0.0
      }
    },
    {
      "doubleSided": true,
      "name": "07_-_Default",
      "pbrMetallicRoughness": {
        "baseColorFactor": [
          0.133333,
          0.133333,
          0.133333,
          1.0
        ],
        "metallicFactor": 0.9285442073,
        "roughnessFactor": 0.2177972561
      }
    }
  ],
  "meshes": [
    {
      "name": "Death Star_03 - Default_0",
      "primitives": [
        {
          "attributes": {
            "NORMAL": 1,
            "POSITION": 0,
            "TANGENT": 2,
            "TEXCOORD_0": 3
          },
          "indices": 4,
          "material": 0,
          "mode": 4
        }
      ]
    },
    {
      "name": "Death Star_02 - Default_0",
      "primitives": [
        {
          "attributes": {
            "NORMAL": 6,
            "POSITION": 5,
            "TANGENT": 7,
            "TEXCOORD_0": 8
          },
          "indices": 9,
          "material": 1,
          "mode": 4
        }
      ]
    },
    {
      "name": "Death Star_07 - Default_0",
      "primitives": [
        {
          "attributes": {
            "NORMAL": 11,
            "POSITION": 10,
            "TEXCOORD_0": 12
          },
          "indices": 13,
          "material": 2,
          "mode": 4
        }
      ]
    }
  ],
  "nodes": [
    {
      "children": [
        1
      ],
      "matrix": [
        1.0,
        0.0,
        0.0,
        0.0,
        0.0,
        2.220446049250313e-16,
        -1.0,
        0.0,
        0.0,
        1.0,
        2.220446049250313e-16,
        0.0,
        0.0,
        0.0,
        0.0,
        1.0
      ],
      "name": "Sketchfab_model"
    },
    {
      "children": [
        2
      ],
      "matrix": [
        1.0,
        0.0,
        0.0,
        0.0,
        0.0,
        0.0,
        1.0,
        0.0,
        0.0,
        -1.0,
        0.0,
        0.0,
        0.0,
        0.0,
        0.0,
        1.0
      ],
      "name": "Death Star.FBX"
    },
    {
      "children": [
        3
      ],
      "name": "Object_2"
    },
    {
      "children": [
        4
      ],
      "name": "RootNode"
    },
    {
      "children": [
        5
      ],
      "name": "Death Star",
      "rotation": [
        0.8862483501434326,
        -0.017991432920098305,
        0.017991434782743454,
        -0.4625110328197479
      ],
      "scale": [
        3.5832250118255615,
        3.5832250118255615,
        3.5832250118255615
      ],
      "translation": [
        -2.7816519737243652,
        19.208181381225586,
        -1.3017817735671997
      ]
    },
    {
      "children": [
        6,
        7,
        8
      ],
      "matrix": [
        0.9987052327815733,
        -0.015247286424584802,
        0.04853223950520282,
        0.0,
        -0.015247279658557735,
        0.8204467669236637,
        0.5715195736871322,
        0.0,
        -0.048532241630872865,
        -0.5715195735066247,
        0.8191519997052369,
        0.0,
        -5.12804945174139e-08,
        -6.038872015778907e-07,
        2.009825038840063e-06,
        1.0
      ],
      "name": "Object_5"
    },
    {
      "mesh": 0,
      "name": "Death Star_03 - Default_0"
    },
    {
      "mesh": 1,
      "name": "Death Star_02 - Default_0"
    },
    {
      "mesh": 2,
      "name": "Death Star_07 - Default_0"
    }
  ],
  "samplers": [
    {
      "magFilter": 9729,
      "minFilter": 9987,
      "wrapS": 10497,
      "wrapT": 10497
    }
  ],
  "scene": 0,
  "scenes": [
    {
      "name": "Sketchfab_Scene",
      "nodes": [
        0
      ]
    }
  ],
  "textures": [
    {
      "sampler": 0,
      "source": 0
    },
    {
      "sampler": 0,
      "source": 1
    },
    {
      "sampler": 0,
      "source": 2
    },
    {
      "sampler": 0,
      "source": 3
    }
  ]
}
